<svg width="877" height="183" viewBox="0 0 877 183" fill="none" xmlns="http://www.w3.org/2000/svg">
<path d="M60.5 32C64.8333 46 80.1 72.9 106.5 68.5C132.9 64.1 141.833 50.3333 143 44C144 37 141.8 23.6 125 26C104 29 98.5 29.5 70 49C47.2 64.6 25.1667 92.1667 17 104C12 111.167 2 130 2 148C2 166 14.3333 176.167 20.5 179C30.3333 181 51.7 183.2 58.5 176C69 171 93.5 148 95 141M137 104.779C133.771 109.061 129.262 115.203 126.5 119.5C122.5 123.9 105.167 159 97 176L126.5 135L149.5 111L168.5 97.5C174.833 94.8333 187.8 90.1 189 92.5C193 92.5 212 92.5 209.5 110C207.5 124 203 129.5 201 130.5C193 139.833 177.1 158.5 177.5 158.5C178 158.5 171.5 167 173.5 172.5C175.1 176.9 186.5 175.333 192 174L204 168L219.5 158.5L235 146L251 130.5L265 113L274.5 97.5C276.5 91.1667 279.9 78.9 277.5 80.5C272.5 81.5 271.5 79.5 270.5 88.5C269.5 97.5 289 100.5 294 100C298 99.6 302.333 100.833 304 101.5C305.833 104.333 307.6 111.5 300 117.5C294 126 279 140 270 169C261 198 338 160 338 160M137 104.779C137.979 103.481 138.841 102.353 139.5 101.5L147.5 90.5C164.333 68.5 198.5 25.1 200.5 27.5C205.5 21 219.5 5.00001 225.5 9C230.7 10.2 232.333 12.1667 232.5 13C233.167 16.3333 233.8 23.9 231 27.5C228.2 31.1 214.833 45.3333 208.5 52L180.5 74.5L137 104.779ZM338 160C338 160 345.667 145.5 347 143.5C354 133 368.3 111.6 369.5 110C370.7 108.4 380.333 97 385 91.5M338 160C338.167 161 338.7 164.2 339.5 169C340.5 175 353.5 176.5 367.5 173.5C378.7 171.1 400.5 155.833 410 148.5L449.5 115.5L463 104L474 93.5C475.833 91.6667 479.4 87 479 83C478.6 79 471.5 80.3333 468 81.5C466.333 83.1667 463 87.9 463 93.5C463 97.3557 464.669 120.932 464.747 141M464.747 141C464.811 157.366 457.5 169.5 454.5 174C450.5 177.5 451.5 179.957 440.5 179C431.3 178.2 433.667 165.333 436 159C443.5 145.5 462.145 138.2 464.747 141ZM464.747 141C475.998 135.667 501.9 125.7 515.5 128.5C529.1 131.3 523.5 130.667 519 130L504.5 142.5L566 91.5M566 91.5L568.75 88.5M566 91.5L534 153C530.5 162.167 527.6 180.1 544 178.5C564.5 176.5 578.5 172 615.5 144M568.75 88.5L571.5 85.5C594.667 58.5 637.1 4.1 621.5 2.5C605.9 0.899999 579.833 59.1667 568.75 88.5ZM608 90L529 87.5M615.5 144C627.5 130 653.5 105.5 658 106C662.5 103.5 684 93.5 696.5 94C706.5 94.4 714.667 98.5 717.5 100.5C720.167 104.333 724.2 113.6 719 120C715 126.8 702.333 140.167 696.5 146M615.5 144C613 155.5 613.1 178.7 633.5 179.5C659 180.5 668 167 668 168.5C668 169.7 687 154 696.5 146M696.5 146C699.3 144.4 705.333 140.333 708 138.5L740 118M696.5 146C692.667 150.5 685.2 159.6 686 160C684 164 681 169.5 686 174.5C691 179.5 719 175 725.5 171C730.7 167.8 752 151.667 762 144M762 144L767.5 133.5M762 144C758.5 150.5 753.1 165.3 759.5 172.5C767.5 176.5 773.5 177.5 782.5 176C789.7 174.8 804.167 168.5 810.5 165.5L850 141M767.5 133.5C788.5 119.667 833.7 88.1 846.5 72.5C861.5 52.5 878 32 874 22C869.5 16.5 871 10 846.5 20C825.5 42 809 64 791.5 90C777.5 110.8 769.667 127.667 767.5 133.5Z" stroke="black" stroke-width="3"/>
<ellipse cx="394.5" cy="78" rx="7.5" ry="9" fill="#D9D9D9"/>
</svg>
